# xmcd CD database file
#
# Track frame offsets:
#	150
#	22042
#	45507
#
# Disc length: 896 seconds
#
# Revision: 0
# Processed by: cddbd v1.5.1PL2 Copyright (c) Steve Scherf et al.
# Submitted via: CDex 1.51
#
DISCID=1c037e03
DTITLE=黒川芽以 - ヒコーキ雲
DYEAR=2006
DGENRE=JPop
TTITLE0=ヒコーキ雲
TTITLE1=ここにいる
TTITLE2=ヒコーキ雲(インストゥルメンタル　ヴァージョン)
EXTD=YEAR: 2006
EXTT0=
EXTT1=
EXTT2=
PLAYORDER=
